PathFileType	4	(X/Y/Z)	C:\Users\WrightLab\Desktop\Jo\P3_33.trc
DataRate	CameraRate	NumFrames	NumMarkers	Units	OrigDataRate	OrigDataStartFrame	OrigNumFrames
100.00	100.00	       25	19	mm	100.00	404	       646
Frame#	Time	Headset_Front			Headset_Back			Headset_Left			Headset_Right			Left_Shoulder			Right_Shoulder			Sternum			C7			Left Elbow			Right Elbow			Left Wrist			Right Wrist			Left ASIS			Right ASIS			S2			Left Knee			Right Knee			Left Ankle			Right Ankle			
		X1	Y1	Z1	X2	Y2	Z2	X3	Y3	Z3	X4	Y4	Z4	X5	Y5	Z5	X6	Y6	Z6	X7	Y7	Z7	X8	Y8	Z8	X9	Y9	Z9	X10	Y10	Z10	X11	Y11	Z11	X12	Y12	Z12	X13	Y13	Z13	X14	Y14	Z14	X15	Y15	Z15	X16	Y16	Z16	X17	Y17	Z17	X18	Y18	Z18	X19	Y19	Z19	

404	4.030	-561.70526	1457.89514	-1126.35291	-708.57764	1523.79333	-991.06561							-805.03333	1283.57324	-926.24255	-445.95856	1297.71326	-872.64752	-608.50201	1175.43250	-1030.59985	-630.81360	1343.91101	-849.87030	-871.95874	948.56995	-918.28833	-361.20856	952.37250	-850.90674	-847.90320	766.20795	-1006.46411	-330.23148	783.41144	-996.36615	-696.84381	816.85590	-1031.03357				-624.99072	895.27173	-794.43494				-502.92499	385.88004	-834.67010				-557.65710	127.28337	-614.38385	
405	4.040	-560.71582	1459.59277	-1135.14417	-708.29620	1525.02539	-999.92883							-804.44006	1284.58936	-935.56201	-445.56607	1299.57800	-879.58972	-607.75922	1176.86707	-1039.11841	-630.70270	1345.23303	-858.50488	-870.81427	949.50555	-928.80219	-363.66479	953.69348	-856.86395	-846.17126	767.03473	-1017.59125	-330.60693	781.31384	-997.29846	-696.10077	819.25427	-1040.85474				-623.31647	896.05243	-803.95221				-499.75052	384.31683	-850.10010				-556.74866	132.13432	-622.96967	
406	4.050	-559.55194	1461.42188	-1143.56372	-707.81519	1526.55603	-1008.77850							-803.97986	1285.82153	-945.16241	-445.28458	1301.59131	-887.48468	-606.54205	1179.33069	-1048.95300	-631.10260	1346.05029	-867.90814	-869.66461	950.46222	-939.02411	-363.97406	957.74622	-862.00983	-844.13904	768.34235	-1029.19812	-331.48337	780.78815	-999.20776	-695.31323	821.59106	-1050.68115				-621.45856	897.35266	-814.26538				-496.47672	383.36932	-867.35187				-553.96313	137.97745	-633.85443	
407	4.060	-558.41913	1462.92212	-1152.04175	-707.33649	1527.86914	-1017.16321							-803.29071	1286.19019	-954.10675	-445.13989	1303.80615	-896.53296	-605.45654	1180.73303	-1057.29358	-631.15796	1347.26599	-877.12744	-869.52277	951.87805	-949.55762	-366.13681	959.99139	-868.42767	-841.85358	769.44122	-1040.45300	-332.16412	779.69696	-999.90936	-694.32556	823.54755	-1059.49268				-621.52289	897.96051	-825.15283				-491.87936	382.75842	-885.19891				-551.72900	143.50949	-644.37366	
408	4.070	-557.03290	1464.77405	-1159.28552	-706.66852	1529.51917	-1026.37439							-802.88312	1287.76868	-963.80829	-445.05386	1305.93494	-903.69080	-604.25891	1182.40076	-1066.87463	-631.02277	1349.14160	-885.96161	-867.19196	951.93304	-959.84247	-366.66824	961.53607	-874.53308	-839.54993	770.76398	-1051.74512	-332.90195	779.18848	-1000.46454	-693.59802	824.93774	-1069.01636				-619.99933	899.61188	-830.91187				-489.28885	381.20816	-901.60272				-550.11072	149.18466	-655.48035	
409	4.080	-555.61847	1466.53638	-1167.33740	-705.93622	1530.85071	-1034.63452							-802.24518	1288.64294	-973.49622	-444.70386	1308.29431	-914.65985	-602.57849	1184.28577	-1075.70984	-631.31366	1349.92163	-894.98395	-866.14990	952.82904	-970.29651	-367.71078	964.86084	-878.85431	-836.99939	771.81970	-1062.39783	-333.46222	779.93536	-1004.28424	-692.42126	826.47955	-1078.87158				-620.08527	900.57697	-840.86798				-485.21115	381.47589	-918.47833				-547.22961	155.50645	-667.04138	
410	4.090	-553.82660	1469.22620	-1175.56458	-705.13135	1532.10510	-1042.79407							-801.00604	1289.34985	-983.38995	-443.74042	1309.19226	-920.44379	-600.93579	1185.42834	-1083.87500	-631.11993	1350.63904	-903.19128	-864.53119	953.83429	-980.72467	-367.85278	966.67859	-884.59753	-834.27002	773.02454	-1073.37708	-333.54889	778.62744	-1004.36359	-691.03479	826.93884	-1087.51086				-620.65533	901.93665	-848.79053				-480.88214	381.78574	-935.97290				-543.16138	162.66299	-679.35461	
411	4.100	-552.27368	1471.02673	-1183.66052										-800.16803	1290.38879	-993.68610	-443.64496	1311.45288	-928.17291	-599.16626	1186.34375	-1092.67847	-630.43793	1351.70789	-911.81665	-863.21802	954.08057	-991.07947	-369.15213	968.35388	-890.87610	-831.50293	774.21838	-1084.91516	-333.80835	778.82770	-1006.19354	-689.24158	827.10114	-1096.36060				-620.49677	903.46570	-858.44684				-476.76248	381.47693	-952.41699				-541.27576	168.64590	-693.11542	
412	4.110	-550.51422	1473.30737	-1192.04456	-703.09534	1534.97229	-1059.58862							-799.08862	1290.57458	-1003.50464	-443.42688	1312.57043	-935.30078	-597.28180	1187.19507	-1101.58423	-629.03217	1352.89185	-921.82788	-862.22266	955.02094	-1001.99805	-369.31149	970.37384	-895.59839	-828.61353	775.12946	-1096.19165	-333.84937	779.61548	-1009.82941	-687.31384	826.48724	-1104.38074				-619.60571	903.76764	-865.93207				-472.03473	383.46152	-969.77319				-537.36292	175.03856	-706.09644	
413	4.120	-548.66199	1475.65320	-1199.73364	-701.95081	1536.49976	-1068.30823							-798.32465	1291.42798	-1014.14899	-442.24103	1314.16931	-943.75391	-595.04523	1188.01489	-1109.78674	-628.84961	1353.88269	-930.52179	-860.56732	955.58618	-1013.11823	-368.56137	971.53174	-898.64825	-825.73761	776.04785	-1107.21484	-333.79279	780.63361	-1012.55548	-684.77893	826.78040	-1113.37463				-620.71484	904.54095	-874.31390				-467.20587	384.68219	-984.55695				-533.35168	181.36505	-719.57397	
414	4.130	-546.53076	1478.22546	-1207.31128	-700.61115	1537.83582	-1075.99048							-797.27197	1291.64075	-1024.23535	-441.57352	1314.61292	-950.43866	-592.70966	1188.50610	-1117.79150	-629.46735	1356.10205	-939.95251	-859.74915	955.76819	-1024.36243	-368.56985	973.37134	-903.62500	-822.59149	776.97821	-1118.32263	-333.30423	781.51483	-1016.80896	-682.21478	826.48633	-1121.24756				-620.68274	905.49005	-881.65149				-462.29437	387.33670	-1003.09680				-531.22382	188.31163	-732.18030	
415	4.140	-544.45203	1480.33020	-1215.19763	-699.08911	1539.63147	-1084.33850							-795.71759	1292.55090	-1035.88660	-441.27625	1316.36816	-957.88220	-590.31940	1188.75024	-1125.57629	-629.03491	1357.02234	-948.68042	-857.91681	955.97900	-1034.93665	-367.74551	974.70880	-907.62390	-819.31891	777.61212	-1129.11292	-332.53055	781.17450	-1016.76703	-679.35822	826.63843	-1128.85718				-621.34088	906.75073	-888.66821				-456.23282	388.72025	-1017.46008				-529.40192	193.61360	-746.66125	
416	4.150	-542.11157	1482.69495	-1222.86609	-697.62830	1540.86511	-1092.11499							-794.43555	1292.41309	-1045.53235	-440.95941	1317.10046	-963.19836	-587.84082	1189.23352	-1133.81287	-628.09296	1358.51086	-957.24432	-856.78656	956.99640	-1046.19263	-367.72424	975.52832	-911.98187	-815.97736	778.67999	-1141.13135	-331.33768	781.80939	-1021.21924	-676.61566	826.90576	-1136.61951				-622.52423	908.89038	-897.44922				-452.20212	390.39679	-1033.51221				-527.37091	198.88475	-760.36078	
417	4.160				-695.78217	1542.60913	-1100.26514							-792.43146	1293.58411	-1056.64307	-440.09204	1318.18970	-969.39093	-585.25653	1189.50842	-1141.52686	-627.80670	1359.11475	-965.78882	-854.74579	958.02179	-1058.04578	-368.08237	976.45343	-916.61951	-812.37659	779.48859	-1152.06958	-330.49222	784.80579	-1026.45276	-673.73907	827.43256	-1143.96716				-621.50989	910.70062	-905.93768				-444.89279	395.23001	-1046.59363				-525.38440	202.98775	-776.83466	
418	4.170	-537.34265	1486.63098	-1238.22510	-694.04315	1543.68225	-1107.81335							-790.82758	1294.85498	-1067.90442	-439.58725	1319.53674	-976.19458	-582.55530	1189.79333	-1148.92505	-628.79224	1360.88269	-974.79913	-853.38885	958.48181	-1069.72827	-367.37479	977.64233	-919.08289	-808.64063	780.45483	-1163.27502	-328.74692	784.99268	-1028.95581	-670.72852	828.14240	-1150.44128				-621.31592	911.15027	-912.06653				-440.95822	396.40936	-1060.96143				-523.02478	204.96329	-792.52258	
419	4.180	-534.66449	1488.27869	-1245.20776	-692.13959	1545.08069	-1116.43933							-789.18030	1295.22437	-1077.99158	-438.98413	1320.04163	-980.86255	-579.43640	1190.46143	-1155.48828	-628.43988	1362.01721	-982.82684	-850.79047	959.36023	-1081.23364	-368.17712	979.60089	-923.27014	-805.11835	780.71997	-1174.51624	-327.02631	785.99902	-1031.28247	-668.10657	828.99677	-1158.29724				-620.75873	912.32153	-918.22192				-434.78717	399.59930	-1075.27454				-520.62018	206.70093	-808.67224	
420	4.190				-689.99512	1546.44531	-1124.47375							-787.16907	1296.34021	-1088.57605	-438.74234	1321.88647	-988.18115	-576.51666	1190.81226	-1162.75879	-626.98181	1362.91125	-991.27155	-849.88519	960.62347	-1093.85437	-368.32672	979.98853	-928.18042	-800.93488	782.07019	-1186.44751	-325.26611	788.24615	-1036.35779	-665.17407	830.13013	-1165.53357				-621.45996	913.78351	-924.21204				-429.70676	403.50711	-1088.46045				-517.20465	207.05011	-825.54303	
421	4.200	-528.83087	1491.32129	-1259.76965	-687.94836	1547.32288	-1131.97754							-784.94965	1296.86523	-1099.24951	-438.11584	1323.03369	-993.33362	-573.51135	1191.22949	-1170.00269	-625.48260	1363.77515	-999.20032	-846.33289	961.10156	-1105.43591	-368.04459	981.27539	-930.16797	-796.93073	782.60022	-1197.56897	-323.16293	790.57227	-1041.27075	-662.51062	830.30780	-1171.81348				-620.73419	914.64819	-932.23425				-423.84210	405.97644	-1101.52527				-514.04724	206.44934	-841.57196	
422	4.210				-685.66156	1548.38953	-1139.69678							-782.82568	1297.95984	-1109.60229	-437.70291	1324.53613	-998.82312	-570.22510	1192.10889	-1176.78406	-625.12518	1364.95972	-1007.51038	-843.62775	962.01526	-1117.52576	-367.46335	982.69623	-934.77832	-792.41467	783.50397	-1208.66296	-319.87991	792.75549	-1046.01807	-659.85571	830.83868	-1179.16492				-620.94531	915.67737	-938.51031				-419.17422	409.36392	-1115.07922				-510.54398	204.29410	-859.03174	
423	4.220				-683.31122	1549.35339	-1148.17249							-780.63507	1298.94165	-1119.94836	-437.18326	1324.82996	-1002.69061	-567.17944	1192.40076	-1183.51343	-625.26001	1366.30994	-1015.32068	-841.38635	962.98779	-1129.93677	-368.29410	984.16266	-938.71863	-787.78125	784.20538	-1219.68945	-318.34592	795.25189	-1050.87585	-657.09918	831.06677	-1185.36792				-620.85492	917.59595	-945.47778				-410.76147	414.37057	-1124.14587				-506.81580	200.88608	-877.15106	
424	4.230				-680.80896	1549.95288	-1155.67627							-778.32373	1300.04163	-1130.24744	-436.69940	1326.36560	-1008.63397	-563.75372	1193.30298	-1189.92139	-625.05890	1367.35889	-1023.40033	-838.77130	964.14856	-1142.14331	-367.59387	985.35828	-941.08081	-783.03149	784.86517	-1230.99097	-315.46988	796.43231	-1054.14954	-654.45148	831.22321	-1191.91321				-620.24200	918.47180	-952.15918				-405.08722	416.63599	-1136.02563				-502.65018	197.05412	-894.91260	
425	4.240				-678.18854	1550.88879	-1163.56116							-775.54059	1300.93115	-1140.97473	-436.61584	1327.24915	-1013.78400	-560.55981	1193.68555	-1196.49634	-622.89709	1367.39624	-1031.05786	-836.23840	965.00336	-1154.22083	-367.65424	986.75085	-945.36798	-778.08350	785.51898	-1241.96130	-312.95496	799.38947	-1057.96997	-651.75543	831.37256	-1198.48389				-619.61420	918.71747	-958.30798				-399.48752	420.59546	-1146.94678				-496.31259	193.53949	-913.39264	
426	4.250				-675.46631	1551.58179	-1171.04358							-773.53381	1301.56189	-1150.75842	-435.68762	1328.26733	-1018.64130	-557.22241	1194.15784	-1202.89539	-623.52496	1368.40515	-1039.13379	-832.99976	965.19855	-1166.42029	-367.90952	986.59979	-949.16095	-772.90094	786.02295	-1252.78699	-309.05197	801.08051	-1064.13062	-649.15027	831.41577	-1205.58679				-618.41388	918.56073	-963.87982				-395.13492	422.68179	-1157.76453				-492.06015	187.18193	-931.26672	
427	4.260				-672.69299	1552.15723	-1178.85986							-770.37518	1302.76929	-1161.15759	-434.80853	1328.52393	-1023.19025	-553.69177	1194.72437	-1209.11438	-621.86847	1368.44751	-1046.54700	-829.76569	966.53156	-1178.86084	-367.74768	987.28003	-953.00824	-767.29718	786.78522	-1263.51709	-305.77060	802.19604	-1067.42761							-618.47711	920.74121	-970.14551				-387.79938	426.82968	-1166.76965				-484.77737	181.79240	-950.96661	
428	4.270				-669.77277	1552.64771	-1186.45483							-767.31335	1302.66980	-1170.48572	-434.49457	1329.59680	-1029.00049	-550.37482	1194.80212	-1215.79187	-620.41968	1369.06775	-1053.70435	-826.60571	966.78735	-1190.81775	-367.78818	988.27844	-957.50488	-761.91211	786.71344	-1273.58862	-302.82941	804.49896	-1072.67773							-618.35809	920.33990	-976.43085				-382.08698	429.25998	-1174.84521				-478.88171	174.73114	-970.54565	
